<?xml version="1.0" standalone="no"?>
<!DOCTYPE svg PUBLIC "-//W3C//DTD SVG 20010904//EN"
 "http://www.w3.org/TR/2001/REC-SVG-20010904/DTD/svg10.dtd">
<svg version="1.0" xmlns="http://www.w3.org/2000/svg"
 width="736.000000pt" height="736.000000pt" viewBox="0 0 736.000000 736.000000"
 preserveAspectRatio="xMidYMid meet">
<metadata>
Created by potrace 1.11, written by Peter Selinger 2001-2013
</metadata>
<g transform="translate(0.000000,736.000000) scale(0.100000,-0.100000)"
fill="#000000" stroke="none">
<path d="M37 6372 l-37 -3 2 -542 3 -542 3677 0 3678 0 0 543 c0 509 -1 542
-17 542 -115 3 -7278 4 -7306 2z"/>
<path d="M0 3654 c0 -508 1 -542 18 -546 9 -2 1664 -3 3677 -3 l3660 1 3 542
c2 511 1 542 -15 543 -10 0 -1666 1 -3680 2 l-3663 2 0 -541z"/>
<path d="M0 1473 l0 -543 3680 0 3680 0 -2 543 -3 542 -3677 0 -3678 1 0 -543z"/>
</g>
</svg>
