<svg id="Layer_1" data-name="Layer 1" xmlns="http://www.w3.org/2000/svg" viewBox="0 0 165.04 23.9"><defs><style>.cls-1{fill:#003162;}.cls-2{fill:#00a19a;}.cls-3{fill:#2f72b9;}</style></defs><title>FreshAirCapital-logo</title><path class="cls-1" d="M29.71,3.25v6.5H35v0.93H29.71v8.08H28.35V2.32h7.19V3.25H29.71Z"/><path class="cls-1" d="M42.59,6.76a4.75,4.75,0,0,0-.87-0.16,4.56,4.56,0,0,0-.87,0,3.63,3.63,0,0,0-.8.18,2.47,2.47,0,0,0-.63.32V18.76H38.12V6.55q0.43-.22.85-0.39a4.83,4.83,0,0,1,1-.29A10.91,10.91,0,0,1,41.2,5.7Q41.92,5.64,43,5.64Z"/><path class="cls-1" d="M45.82,12.88a6.2,6.2,0,0,0,1.27,3.85A3.88,3.88,0,0,0,50.14,18,6.22,6.22,0,0,0,52,17.76a5.8,5.8,0,0,0,1.24-.53l0.41,0.93a5.37,5.37,0,0,1-1.45.59,7.87,7.87,0,0,1-2.07.25,6.23,6.23,0,0,1-2.17-.37,4.43,4.43,0,0,1-1.74-1.17A5.67,5.67,0,0,1,45,15.38a9.75,9.75,0,0,1-.43-3.09,10.17,10.17,0,0,1,.38-3,6.19,6.19,0,0,1,1-2.08A4.07,4.07,0,0,1,47.58,6a4.67,4.67,0,0,1,1.9-.39A5.17,5.17,0,0,1,51.36,6,3.5,3.5,0,0,1,52.82,7a5.26,5.26,0,0,1,.93,1.88,9.91,9.91,0,0,1,.33,2.75ZM52.58,9a3.77,3.77,0,0,0-.67-1.36,2.49,2.49,0,0,0-1.05-.76,3.91,3.91,0,0,0-1.41-.24A3.36,3.36,0,0,0,48,6.91a3,3,0,0,0-1.16,1,5.08,5.08,0,0,0-.78,1.71,9.64,9.64,0,0,0-.29,2.51l7-1.08A7.61,7.61,0,0,0,52.58,9Z"/><path class="cls-1" d="M63.41,15.32a3.28,3.28,0,0,1-.29,1.33,3.58,3.58,0,0,1-.82,1.17A4.16,4.16,0,0,1,59.39,19a6.19,6.19,0,0,1-1.79-.24,4.06,4.06,0,0,1-1.29-.62l0.38-.91a3.2,3.2,0,0,0,1,.53,4.86,4.86,0,0,0,1.61.24,2.77,2.77,0,0,0,2-.75,2.53,2.53,0,0,0,.76-1.88,2.33,2.33,0,0,0-.61-1.76,5.07,5.07,0,0,0-1.78-1,6.9,6.9,0,0,1-1.58-.78,3.62,3.62,0,0,1-.92-0.88,2.87,2.87,0,0,1-.44-1,4.17,4.17,0,0,1-.12-1,3.24,3.24,0,0,1,.25-1.27,3.08,3.08,0,0,1,.73-1.05,3.71,3.71,0,0,1,1.14-.73,3.85,3.85,0,0,1,1.49-.27,4.46,4.46,0,0,1,1.6.27,4.09,4.09,0,0,1,1.1.59l-0.38.84a5.36,5.36,0,0,0-.86-0.49,3.18,3.18,0,0,0-1.39-.28,2.36,2.36,0,0,0-1.85.71,2.44,2.44,0,0,0-.63,1.68,2,2,0,0,0,.68,1.64,5.9,5.9,0,0,0,1.71.94,6.41,6.41,0,0,1,1.57.76,4.3,4.3,0,0,1,1,.91,2.8,2.8,0,0,1,.49,1A4.68,4.68,0,0,1,63.41,15.32Z"/><path class="cls-1" d="M73.76,18.76V9.54a4.43,4.43,0,0,0-.13-1.08,2.26,2.26,0,0,0-.48-0.93,2.38,2.38,0,0,0-.92-0.65,3.75,3.75,0,0,0-1.43-.24,6,6,0,0,0-1.57.19,5.69,5.69,0,0,0-1.42.62v11.3H66.51V0H67.8V6.67A7.81,7.81,0,0,1,69.43,6a5.43,5.43,0,0,1,1.43-.2,5.2,5.2,0,0,1,2,.35A3.57,3.57,0,0,1,74.19,7a3.09,3.09,0,0,1,.67,1.2A4.57,4.57,0,0,1,75,9.49v9.27H73.76Z"/><path class="cls-1" d="M88.5,18.76l-1.82-5.62h-6L78.8,18.76H77.51L83.19,2.32h1.08l5.64,16.44H88.5ZM84.25,5.62a14.16,14.16,0,0,1-.5-2h0q-0.24,1-.57,2l-2.17,6.67H86.4Z"/><path class="cls-1" d="M94,2.27a0.86,0.86,0,1,1-1.72,0A0.86,0.86,0,1,1,94,2.27ZM92.54,18.76V5.88h1.29V18.76H92.54Z"/><path class="cls-1" d="M102.14,6.76a4.75,4.75,0,0,0-.87-0.16,4.56,4.56,0,0,0-.87,0,3.63,3.63,0,0,0-.8.18,2.47,2.47,0,0,0-.63.32V18.76H97.68V6.55q0.43-.22.85-0.39a4.83,4.83,0,0,1,1-.29,10.91,10.91,0,0,1,1.27-.17q0.73-.06,1.78-0.06Z"/><path class="cls-2" d="M112.23,18.76a6.16,6.16,0,0,1-1.74.24,4.88,4.88,0,0,1-2.5-.65,5.76,5.76,0,0,1-1.89-1.79,8.93,8.93,0,0,1-1.19-2.69,12.7,12.7,0,0,1-.42-3.33,12.5,12.5,0,0,1,.42-3.29,9.1,9.1,0,0,1,1.18-2.69A5.9,5.9,0,0,1,108,2.75a4.75,4.75,0,0,1,2.5-.67,5.72,5.72,0,0,1,1.82.25,4.74,4.74,0,0,1,1.24.61l-0.41.81a4.56,4.56,0,0,0-1-.49A4.3,4.3,0,0,0,110.65,3a3.75,3.75,0,0,0-2.2.63A4.73,4.73,0,0,0,107,5.35a8.29,8.29,0,0,0-.81,2.4,15.19,15.19,0,0,0-.25,2.78,14.79,14.79,0,0,0,.26,2.83,8,8,0,0,0,.84,2.38,4.73,4.73,0,0,0,1.47,1.64,3.71,3.71,0,0,0,2.14.61A4.54,4.54,0,0,0,112,17.8a4.92,4.92,0,0,0,1.1-.5l0.41,0.81A3.49,3.49,0,0,1,112.23,18.76Z"/><path class="cls-2" d="M122.25,18.75A9,9,0,0,1,120,19a4.85,4.85,0,0,1-3.44-1,3.5,3.5,0,0,1-1.08-2.65,3.91,3.91,0,0,1,.56-2.16,4.32,4.32,0,0,1,1.53-1.42,8.62,8.62,0,0,1,2.28-.86,20.73,20.73,0,0,1,2.82-.45V9.54a3.74,3.74,0,0,0-.24-1.43,2.32,2.32,0,0,0-.66-0.92,2.35,2.35,0,0,0-1-.48,5.6,5.6,0,0,0-1.24-.13,5.11,5.11,0,0,0-1.71.27,8,8,0,0,0-1.28.56l-0.36-.84A8.8,8.8,0,0,1,117.68,6a6.23,6.23,0,0,1,2.06-.32,6.36,6.36,0,0,1,1.57.19,3.61,3.61,0,0,1,1.34.65,3.28,3.28,0,0,1,.94,1.21,4.36,4.36,0,0,1,.36,1.88v8.53A6.51,6.51,0,0,1,122.25,18.75Zm0.47-7.56q-1.41.19-2.52,0.45a6.49,6.49,0,0,0-1.86.72,3.1,3.1,0,0,0-1.15,1.17,3.68,3.68,0,0,0-.39,1.79,2.58,2.58,0,0,0,.91,2.22,4.15,4.15,0,0,0,2.51.67,7.11,7.11,0,0,0,1.36-.13,4,4,0,0,0,1.15-.39v-6.5Z"/><path class="cls-2" d="M136.53,12a9.92,9.92,0,0,1-.39,2.93A6.25,6.25,0,0,1,135,17.13a4.85,4.85,0,0,1-1.76,1.35,5.55,5.55,0,0,1-2.32.47,6.43,6.43,0,0,1-1.1-.1,5.93,5.93,0,0,1-1-.24V23.9h-1.27V6.52a5.47,5.47,0,0,1,1.45-.62,7.53,7.53,0,0,1,2.11-.26,5.34,5.34,0,0,1,2.32.48,4.63,4.63,0,0,1,1.67,1.33,5.93,5.93,0,0,1,1,2A9.11,9.11,0,0,1,136.53,12Zm-1.29.14A11.92,11.92,0,0,0,135,9.83,5,5,0,0,0,134.31,8,3.41,3.41,0,0,0,133,6.86a4.19,4.19,0,0,0-1.94-.41,6.3,6.3,0,0,0-1.24.11,3.35,3.35,0,0,0-1,.35V17.8a5.77,5.77,0,0,0,.81.21,5.18,5.18,0,0,0,1,.1,3.9,3.9,0,0,0,3.38-1.58A7.33,7.33,0,0,0,135.24,12.19Z"/><path class="cls-2" d="M141.36,2.27a0.86,0.86,0,1,1-1.72,0A0.86,0.86,0,1,1,141.36,2.27Zm-1.51,16.49V5.88h1.29V18.76h-1.29Z"/><path class="cls-2" d="M148.55,18.83a3,3,0,0,1-1.36-.27,2.52,2.52,0,0,1-.88-0.71,2.68,2.68,0,0,1-.48-1,4.11,4.11,0,0,1-.14-1.06V6.64h-1.51V5.88h1.51V2.8L147,2.32V5.88h2.39V6.62H147v9.27a2.47,2.47,0,0,0,.42,1.41,1.61,1.61,0,0,0,1.45.62h0.26a0.72,0.72,0,0,0,.26,0v0.84A2.55,2.55,0,0,1,148.55,18.83Z"/><path class="cls-2" d="M158.19,18.75A9,9,0,0,1,156,19a4.85,4.85,0,0,1-3.44-1,3.5,3.5,0,0,1-1.08-2.65,3.91,3.91,0,0,1,.56-2.16,4.32,4.32,0,0,1,1.53-1.42,8.62,8.62,0,0,1,2.28-.86,20.73,20.73,0,0,1,2.82-.45V9.54a3.74,3.74,0,0,0-.24-1.43,2.32,2.32,0,0,0-.66-0.92,2.35,2.35,0,0,0-1-.48,5.6,5.6,0,0,0-1.24-.13,5.11,5.11,0,0,0-1.71.27,8,8,0,0,0-1.28.56l-0.36-.84A8.8,8.8,0,0,1,153.62,6a6.23,6.23,0,0,1,2.06-.32,6.36,6.36,0,0,1,1.57.19,3.61,3.61,0,0,1,1.34.65,3.28,3.28,0,0,1,.94,1.21,4.36,4.36,0,0,1,.36,1.88v8.53A6.51,6.51,0,0,1,158.19,18.75Zm0.47-7.56q-1.41.19-2.52,0.45a6.49,6.49,0,0,0-1.86.72,3.1,3.1,0,0,0-1.15,1.17,3.68,3.68,0,0,0-.39,1.79,2.58,2.58,0,0,0,.91,2.22,4.15,4.15,0,0,0,2.51.67,7.11,7.11,0,0,0,1.36-.13,4,4,0,0,0,1.15-.39v-6.5Z"/><path class="cls-2" d="M163.75,18.76V0H165V18.76h-1.29Z"/><rect class="cls-2" y="2.23" width="22.97" height="3.39"/><rect class="cls-3" y="9.03" width="22.97" height="3.39"/><rect class="cls-1" y="15.82" width="22.97" height="3.39"/></svg>